<svg width="44" height="44" viewBox="0 0 44 44" fill="none" xmlns="http://www.w3.org/2000/svg">
<rect width="44" height="44" rx="22" fill="url(#paint0_linear_14_1828)"/>
<path d="M22.0013 13.667C18.7763 13.667 16.168 16.2753 16.168 19.5003C16.168 23.8753 22.0013 30.3337 22.0013 30.3337C22.0013 30.3337 27.8346 23.8753 27.8346 19.5003C27.8346 16.2753 25.2263 13.667 22.0013 13.667ZM22.0013 21.5837C21.4488 21.5837 20.9189 21.3642 20.5282 20.9735C20.1375 20.5828 19.918 20.0529 19.918 19.5003C19.918 18.9478 20.1375 18.4179 20.5282 18.0272C20.9189 17.6365 21.4488 17.417 22.0013 17.417C22.5538 17.417 23.0837 17.6365 23.4744 18.0272C23.8651 18.4179 24.0846 18.9478 24.0846 19.5003C24.0846 20.0529 23.8651 20.5828 23.4744 20.9735C23.0837 21.3642 22.5538 21.5837 22.0013 21.5837Z" fill="white"/>
<defs>
<linearGradient id="paint0_linear_14_1828" x1="-1.2691" y1="46.2393" x2="11.4834" y2="-17.1845" gradientUnits="userSpaceOnUse">
<stop stop-color="#C944F7"/>
<stop offset="1" stop-color="#06DCC2"/>
</linearGradient>
</defs>
</svg>
