<svg width="148" height="61" viewBox="0 0 148 61" fill="none" xmlns="http://www.w3.org/2000/svg">
<path d="M15.4309 29.1395C15.9506 28.8273 16.4703 28.5003 16.99 28.1882C17.7175 27.7571 18.4451 27.326 19.1727 26.895C19.7369 26.568 20.3011 26.2409 20.8654 25.9139C21.6672 25.4383 22.4838 24.9626 23.2857 24.487C24.0726 24.0262 24.8596 23.5654 25.6465 23.1046C25.7356 23.0451 25.8396 23.0154 25.9584 22.956C25.9881 23.0303 26.0178 23.0749 26.0326 23.1343C26.0475 23.2087 26.0326 23.2978 26.0326 23.387C26.0326 25.2153 26.0326 27.0436 26.0474 28.8868C26.0474 30.0759 26.0326 31.265 26.0771 32.4542C26.1217 33.6433 26.092 34.8325 26.1068 36.0216C26.1217 36.8986 26.1217 37.7756 26.1365 38.6377C26.1365 38.7417 26.1514 38.8606 26.1514 38.9498C26.2702 39.0687 26.4186 39.0539 26.5374 39.0539C27.265 39.0539 27.9777 39.1282 28.7053 39.1579C29.0765 39.1728 29.4477 39.1728 29.8041 39.1728C31.0365 39.1877 32.254 39.2025 33.4865 39.2174C33.9765 39.2323 34.4665 39.262 34.9565 39.2769C35.491 39.2917 36.0255 39.2917 36.5601 39.3066C36.6492 39.3066 36.7382 39.2769 36.8273 39.262C36.9313 39.0985 36.9016 38.9498 36.9016 38.8012C36.9016 37.6715 36.8867 36.527 36.8867 35.3973C36.8719 33.7176 36.9016 32.038 36.8422 30.3583C36.7976 29.1097 36.8125 27.876 36.7976 26.6274C36.7828 25.4531 36.7828 24.2789 36.7679 23.1046C36.7679 23.0303 36.7828 22.9411 36.7976 22.8371C36.9758 22.9262 37.1392 23.0005 37.2876 23.0897C38.6388 23.8627 40.0049 24.6356 41.3561 25.4085C42.0688 25.8247 42.7964 26.2261 43.5091 26.6274C44.3109 27.0733 45.1276 27.5193 45.9294 27.9801C46.3748 28.2328 46.8203 28.5003 47.2657 28.753C47.4736 28.8719 47.5478 29.0206 47.5478 29.2435C47.533 29.853 47.5478 30.4773 47.5478 31.0867C47.5478 31.5475 47.5478 32.0231 47.5478 32.4839C47.5627 33.8217 47.5181 35.1595 47.5924 36.4972C47.6666 37.7458 47.6369 38.9796 47.6369 40.2282C47.6666 43.2753 47.6666 46.3225 47.6815 49.3697C47.6815 51.1534 47.6815 52.9222 47.6815 54.7059C47.6815 56.2964 47.6963 57.872 47.6963 59.4624C47.6963 59.5665 47.6963 59.6854 47.7112 59.7895C47.726 59.9232 47.83 59.9827 47.9487 59.9084C48.9733 59.2989 49.9978 58.6895 51.0224 58.0801C51.839 57.6044 52.6705 57.1288 53.4872 56.6531C54.0514 56.3261 54.6157 55.9991 55.1502 55.6423C55.7887 55.2113 56.3529 54.6613 56.828 54.037C57.2883 53.4424 57.6447 52.7884 57.9268 52.0898C58.0308 51.852 58.1199 51.6141 58.1644 51.3466C58.1941 51.1385 58.2684 50.9304 58.3277 50.7223C58.4614 50.202 58.4465 49.6669 58.4614 49.1318C58.4762 48.0616 58.4465 47.0062 58.4465 45.936C58.4465 44.4942 58.4465 43.0375 58.4317 41.5957C58.4317 40.3173 58.4168 39.0242 58.4168 37.7458C58.4168 36.5716 58.4317 35.3973 58.3871 34.223C58.3277 32.9447 58.3574 31.6515 58.3426 30.3732C58.3277 29.1989 58.3129 28.0247 58.298 26.8504C58.298 26.5531 58.2832 26.2558 58.1941 25.9585C58.105 25.691 58.105 25.3937 58.0308 25.1261C57.7784 24.2789 57.4071 23.4762 56.9023 22.7479C56.4568 22.1087 55.9075 21.5439 55.3135 21.0682C54.9126 20.7412 54.4375 20.4736 53.9772 20.2061C52.9823 19.6412 52.0023 19.0764 51.0075 18.5116C49.7899 17.8278 48.5724 17.1441 47.3548 16.4603C46.3897 15.9252 45.4394 15.3752 44.4891 14.8252C43.7615 14.4239 43.0488 14.0226 42.3212 13.6064C41.6382 13.2199 40.9552 12.8186 40.2721 12.4321C39.5594 12.0308 38.8467 11.6294 38.1488 11.2281C37.451 10.8268 36.768 10.4254 36.0701 10.039C35.5652 9.75654 35.0752 9.42953 34.5258 9.20657C34.2586 9.10252 34.0062 8.96874 33.724 8.90928C33.2786 8.79037 32.8331 8.67147 32.3728 8.56742C32.254 8.53769 32.1353 8.55254 32.0016 8.55254C31.6453 8.55254 31.2889 8.55254 30.9326 8.55254C30.6059 8.55254 30.2792 8.56741 29.9674 8.6566C29.7298 8.73092 29.4626 8.7755 29.2101 8.83496C28.5717 8.9836 27.9777 9.25116 27.4135 9.57817C26.6265 10.0241 25.8396 10.4849 25.0526 10.9457C24.3547 11.3619 23.6569 11.7781 22.959 12.1943C22.3502 12.551 21.7414 12.9078 21.1326 13.2645C20.4199 13.6807 19.7072 14.0969 18.9945 14.5131C18.356 14.8847 17.7027 15.2712 17.0642 15.6428C16.5891 15.9252 16.099 16.2076 15.6239 16.49C15.5348 16.5495 15.4457 16.6238 15.3566 16.6981C15.3566 16.8468 15.3418 16.9954 15.3418 17.1441C15.3418 20.9047 15.3418 24.6653 15.3418 28.426C15.3418 28.5746 15.3418 28.7233 15.3418 28.8719C15.3715 28.9611 15.416 29.0503 15.4309 29.1395Z" fill="url(#paint0_linear_14_667)"/>
<path d="M15.4467 29.1401C15.3279 29.1252 15.2091 29.1104 15.0755 29.1104C11.7346 29.1104 8.3789 29.1104 5.03803 29.1104C4.91924 29.1104 4.80046 29.1252 4.65197 29.1252C4.63713 29.2441 4.60742 29.3482 4.60742 29.4522C4.60742 30.6265 4.62227 31.8008 4.62227 32.975C4.62227 33.1237 4.62227 33.2723 4.62227 33.421C4.62227 35.5168 4.62227 37.5978 4.62227 39.6937C4.62227 40.9274 4.63711 42.1463 4.63711 43.38C4.63711 44.584 4.63712 45.788 4.66682 46.992C4.68167 48.1217 4.71136 49.2513 4.74106 50.3959C4.74106 50.5148 4.7559 50.6486 4.78559 50.7526C4.85984 51.0499 4.96379 51.3472 5.02318 51.6593C5.11227 52.1499 5.335 52.5958 5.54287 53.0269C6.00317 53.9484 6.61195 54.766 7.41376 55.42C7.79982 55.747 8.20071 56.0443 8.64616 56.2821C9.26979 56.624 9.87858 56.9659 10.4874 57.3226C11.4228 57.8577 12.3434 58.3928 13.2789 58.9279C13.7392 59.1955 14.1994 59.4333 14.6597 59.7009C14.8973 59.8347 15.12 59.9833 15.3725 60.1022C15.4319 60.1319 15.5209 60.1171 15.61 60.1171C15.6249 59.9982 15.6249 59.909 15.6249 59.8049C15.61 58.4672 15.6397 57.1294 15.5803 55.7916C15.5507 54.9889 15.5655 54.1863 15.5358 53.3687C15.4616 51.5999 15.5358 49.8459 15.4913 48.0771C15.4616 46.9771 15.5061 45.892 15.4467 44.8069C15.3725 43.6029 15.417 42.399 15.4022 41.2098C15.3873 38.8761 15.3725 36.5424 15.3576 34.1939C15.3576 32.9453 15.3576 31.7116 15.3428 30.463C15.3428 30.0765 15.3279 29.7049 15.3279 29.3185C15.3576 29.2739 15.3576 29.1847 15.4467 29.1401Z" fill="url(#paint1_linear_14_667)"/>
<path d="M10.6213 24.3243C10.7549 24.1311 10.7252 23.9824 10.7252 23.8338C10.7252 22.7635 10.7252 21.7082 10.7252 20.638C10.7252 18.4678 10.7252 16.2976 10.7104 14.1274C10.7104 13.9788 10.6956 13.8302 10.6956 13.6667C10.5916 13.6369 10.5174 13.6072 10.4431 13.6072C10.354 13.5923 10.2501 13.6072 10.161 13.6072C6.93893 13.6072 3.71684 13.6072 0.494753 13.6072C0.346269 13.6072 0.197782 13.5775 0.0641472 13.6667C-0.0249429 13.8004 0.00475019 13.9639 0.00475019 14.1126C0.00475019 16.0747 0.00475019 18.0516 0.00475019 20.0137C0.00475019 21.292 0.00475019 22.5852 0.00475019 23.8635C0.00475019 23.9973 0.0195949 24.1311 0.0195949 24.2797C0.138382 24.2946 0.227472 24.3243 0.316562 24.3243C0.77686 24.3243 1.25201 24.3243 1.71231 24.3243C4.54834 24.3243 7.38438 24.3243 10.2353 24.3243C10.354 24.3243 10.4877 24.3243 10.6213 24.3243Z" fill="url(#paint2_linear_14_667)"/>
<path d="M36.2067 60.1471C36.2067 56.654 36.2067 53.1907 36.2067 49.7125C36.2067 49.6679 36.1918 49.6084 36.1769 49.549C36.0285 49.4746 35.88 49.4895 35.7315 49.4895C34.7367 49.4895 33.7418 49.4895 32.747 49.4895C30.5049 49.4895 28.2628 49.4895 26.0355 49.4895C25.8722 49.4895 25.7089 49.4895 25.5752 49.5044C25.4564 49.6084 25.4713 49.7273 25.4713 49.8314C25.4713 50.4557 25.4713 51.0948 25.4713 51.7191C25.4713 54.3501 25.4713 56.9959 25.4713 59.6269C25.4713 59.7904 25.4713 59.9539 25.4861 60.0877C25.6198 60.2215 25.7683 60.1917 25.9019 60.1917C26.481 60.1917 27.0452 60.1917 27.6243 60.1917C30.297 60.1917 32.9697 60.1917 35.6573 60.1917C35.8057 60.2066 35.9839 60.2363 36.2067 60.1471Z" fill="url(#paint3_linear_14_667)"/>
<path d="M11.377 12.5227C11.5255 12.5376 11.6442 12.5525 11.763 12.5525C14.4357 12.5971 17.0193 12.5673 17.3906 12.5227C17.4054 12.4484 17.45 12.3592 17.45 12.27C17.4648 12.0471 17.45 11.839 17.45 11.616C17.45 10.0553 17.45 8.49455 17.45 6.94867C17.45 6.80003 17.4351 6.65138 17.4351 6.53246C17.2718 6.38382 17.1233 6.41356 16.9748 6.41356C16.366 6.41356 15.7424 6.41356 15.1336 6.41356C14.0497 6.41356 12.9806 6.41356 11.8967 6.41356C11.7779 6.41356 11.6442 6.41356 11.5255 6.42842C11.3918 6.44329 11.3324 6.50275 11.3176 6.63652C11.3176 6.71085 11.3176 6.80002 11.3176 6.88921C11.3176 8.56886 11.3176 10.2485 11.3027 11.9282C11.3176 12.0917 11.3027 12.2849 11.377 12.5227Z" fill="url(#paint4_linear_14_667)"/>
<path d="M6.80374 5.37272C6.74435 5.35786 6.68494 5.32812 6.6404 5.32812C5.2595 5.32812 3.87862 5.32812 2.49772 5.32812C2.45318 5.32812 2.39377 5.35786 2.33438 5.37272C2.31953 5.46191 2.30469 5.53623 2.30469 5.61055C2.30469 6.90373 2.30469 8.21178 2.30469 9.50496C2.30469 9.57928 2.30468 9.63874 2.31953 9.71306C2.33438 9.80225 2.39377 9.8617 2.48286 9.87657C2.5571 9.89143 2.6462 9.89143 2.73529 9.89143C3.98255 9.89143 5.21496 9.89143 6.46222 9.89143C6.49192 9.89143 6.52161 9.89143 6.55131 9.89143C6.83343 9.87656 6.87798 9.84685 6.87798 9.54956C6.87798 8.24151 6.87798 6.9186 6.87798 5.61055C6.83344 5.52136 6.81859 5.44705 6.80374 5.37272Z" fill="url(#paint5_linear_14_667)"/>
<path d="M11.1099 0.00660631C10.1447 -0.00825789 9.19442 0.00660631 8.22928 0.00660631C8.19958 0.0957915 8.15504 0.170127 8.15504 0.244448C8.15504 1.07684 8.14019 1.90923 8.15504 2.74162C8.15504 2.91999 8.21442 2.97946 8.40745 2.99433C8.60048 3.00919 8.79351 2.99433 8.98654 2.99433C9.56563 2.99433 10.1299 2.99433 10.7089 2.99433C10.798 2.99433 10.8723 2.99433 10.9614 2.99433C11.1247 2.97946 11.1692 2.92 11.1989 2.77136C11.1989 2.72677 11.1989 2.69703 11.1989 2.65244C11.1989 1.86464 11.1989 1.07684 11.1989 0.274169C11.1692 0.184984 11.1247 0.110656 11.1099 0.00660631Z" fill="url(#paint6_linear_14_667)"/>
<path d="M91.3812 29.0059V53.1156H86.5555V42.8593H76.2359V53.1156H71.4102V29.0059H76.2359V38.9203H86.5555V29.0059H91.3812Z" fill="white"/>
<path d="M100.972 29.0059V53.1156H96.1465V29.0059H100.972Z" fill="white"/>
<path d="M122.133 29.0059V32.9151H115.719V53.1156H110.893V32.9151H104.479V29.0059H122.133Z" fill="white"/>
<path d="M126.083 34.6539C127.152 32.781 128.608 31.3095 130.464 30.269C132.32 29.2285 134.398 28.6934 136.685 28.6934C139.373 28.6934 141.733 29.3771 143.753 30.7595C145.772 32.1419 147.198 34.0593 147.999 36.4971H142.446C141.897 35.3525 141.125 34.4755 140.115 33.9107C139.12 33.331 137.962 33.0486 136.64 33.0486C135.23 33.0486 133.983 33.3756 132.899 34.0296C131.8 34.6836 130.954 35.6201 130.345 36.8092C129.736 38.0132 129.424 39.4105 129.424 41.0158C129.424 42.6063 129.736 44.0035 130.345 45.2075C130.954 46.4115 131.8 47.3479 132.899 48.002C133.997 48.656 135.245 48.983 136.64 48.983C137.947 48.983 139.105 48.6857 140.115 48.106C141.11 47.5115 141.897 46.6493 142.446 45.5048H147.999C147.198 47.9722 145.787 49.8897 143.768 51.2572C141.748 52.6247 139.387 53.3085 136.67 53.3085C134.369 53.3085 132.29 52.7882 130.449 51.7329C128.593 50.6924 127.138 49.2357 126.068 47.3628C124.999 45.5048 124.465 43.3792 124.465 41.0009C124.48 38.6524 125.014 36.5268 126.083 34.6539Z" fill="white"/>
<defs>
<linearGradient id="paint0_linear_14_667" x1="13.2174" y1="64.473" x2="56.3385" y2="9.77438" gradientUnits="userSpaceOnUse">
<stop stop-color="#C944F7"/>
<stop offset="1" stop-color="#06DCC2"/>
</linearGradient>
<linearGradient id="paint1_linear_14_667" x1="1.68802" y1="55.3838" x2="44.8092" y2="0.685168" gradientUnits="userSpaceOnUse">
<stop stop-color="#C944F7"/>
<stop offset="1" stop-color="#06DCC2"/>
</linearGradient>
<linearGradient id="paint2_linear_14_667" x1="-13.7242" y1="43.2336" x2="29.397" y2="-11.465" gradientUnits="userSpaceOnUse">
<stop stop-color="#C944F7"/>
<stop offset="1" stop-color="#06DCC2"/>
</linearGradient>
<linearGradient id="paint3_linear_14_667" x1="19.4392" y1="69.3765" x2="62.5603" y2="14.6779" gradientUnits="userSpaceOnUse">
<stop stop-color="#C944F7"/>
<stop offset="1" stop-color="#06DCC2"/>
</linearGradient>
<linearGradient id="paint4_linear_14_667" x1="-12.7551" y1="43.9995" x2="30.366" y2="-10.6991" gradientUnits="userSpaceOnUse">
<stop stop-color="#C944F7"/>
<stop offset="1" stop-color="#06DCC2"/>
</linearGradient>
<linearGradient id="paint5_linear_14_667" x1="-19.7444" y1="38.4891" x2="23.3766" y2="-16.2095" gradientUnits="userSpaceOnUse">
<stop stop-color="#C944F7"/>
<stop offset="1" stop-color="#06DCC2"/>
</linearGradient>
<linearGradient id="paint6_linear_14_667" x1="-19.5697" y1="38.6269" x2="23.5518" y2="-16.0718" gradientUnits="userSpaceOnUse">
<stop stop-color="#C944F7"/>
<stop offset="1" stop-color="#06DCC2"/>
</linearGradient>
</defs>
</svg>
