<svg width="26" height="26" viewBox="0 0 26 26" fill="none" xmlns="http://www.w3.org/2000/svg">
<path d="M25.5 13.0774C25.5 6.12919 19.9008 0.5 13 0.5C6.09453 0.5 0.5 6.12919 0.5 13.0774C0.5 19.3536 5.06953 24.5575 11.0469 25.5V16.7139H7.87266V13.0782H11.0469V10.3057C11.0469 7.15425 12.9102 5.41385 15.7664 5.41385C17.1344 5.41385 18.5664 5.65911 18.5664 5.65911V8.75394H16.9875C15.4375 8.75394 14.9531 9.72476 14.9531 10.7192V13.0774H18.4195L17.8625 16.7131H14.9531V25.4992C20.9258 24.5567 25.5 19.3528 25.5 13.0766V13.0774Z" fill="white"/>
</svg>
