<svg width="67" height="67" viewBox="0 0 67 67" fill="none" xmlns="http://www.w3.org/2000/svg">
<path fill-rule="evenodd" clip-rule="evenodd" d="M33.5003 61.7256V42.9085H38.2046V61.7256H61.7261V19.387H66.4304V61.7256C66.4304 62.9733 65.9348 64.1698 65.0525 65.0521C64.1703 65.9343 62.9738 66.4299 61.7261 66.4299H5.2746C4.02695 66.4299 2.83039 65.9343 1.94817 65.0521C1.06594 64.1698 0.570313 62.9733 0.570312 61.7256V52.317H5.2746V61.7256H33.5003ZM56.3303 13.9959L42.2221 28.1088C42.9767 29.6796 43.1234 31.4742 42.6338 33.1468C42.1442 34.8193 41.053 36.2515 39.5704 37.1675C38.0877 38.0835 36.3186 38.4184 34.6038 38.1078C32.8889 37.7971 31.3497 36.8629 30.2826 35.4851L17.5152 39.7378L14.6832 40.6833C14.6535 42.3478 14.0363 43.9482 12.9407 45.2016C11.8451 46.4549 10.3416 47.2806 8.69604 47.5326C7.05049 47.7846 5.36883 47.4467 3.94833 46.5787C2.52783 45.7106 1.45998 44.3683 0.933547 42.7889C0.407111 41.2096 0.455991 39.4951 1.07155 37.9483C1.6871 36.4016 2.82969 35.1222 4.29733 34.3365C5.76498 33.5508 7.46316 33.3092 9.09168 33.6546C10.7202 33.9999 12.1742 34.9099 13.1966 36.2237L28.7961 31.0207C28.817 29.8396 29.1342 28.6827 29.7185 27.656C30.3028 26.6293 31.1355 25.7657 32.1402 25.1444C33.1449 24.5231 34.2895 24.164 35.4691 24.1C36.6487 24.036 37.8254 24.2692 38.8915 24.7781L53.0043 10.6652C52.2869 9.16318 52.1235 7.45584 52.5431 5.84498C52.9628 4.23413 53.9384 2.82349 55.2975 1.86238C56.6566 0.90128 58.3118 0.451605 59.9704 0.592837C61.629 0.734069 63.1843 1.45711 64.3613 2.63418C65.5384 3.81124 66.2614 5.36652 66.4027 7.02514C66.5439 8.68375 66.0942 10.3389 65.1331 11.698C64.172 13.0571 62.7614 14.0327 61.1505 14.4524C59.5397 14.872 57.8323 14.7086 56.3303 13.9912" fill="white"/>
</svg>
