<svg width="26" height="26" viewBox="0 0 26 26" fill="none" xmlns="http://www.w3.org/2000/svg">
<path d="M14.2857 0.5C15.692 0.50375 16.4057 0.51125 17.022 0.52875L17.2645 0.5375C17.5445 0.5475 17.8207 0.56 18.1545 0.575C19.4845 0.6375 20.392 0.8475 21.1882 1.15625C22.0132 1.47375 22.7082 1.90375 23.4032 2.5975C24.0391 3.22217 24.5309 3.97809 24.8445 4.8125C25.1532 5.60875 25.3632 6.51625 25.4257 7.8475C25.4407 8.18 25.4532 8.45625 25.4632 8.7375L25.4707 8.98C25.4895 9.595 25.497 10.3087 25.4995 11.715L25.5007 12.6475V14.285C25.5038 15.1968 25.4942 16.1085 25.472 17.02L25.4645 17.2625C25.4545 17.5437 25.442 17.82 25.427 18.1525C25.3645 19.4837 25.152 20.39 24.8445 21.1875C24.5309 22.0219 24.0391 22.7778 23.4032 23.4025C22.7785 24.0384 22.0226 24.5302 21.1882 24.8437C20.392 25.1525 19.4845 25.3625 18.1545 25.425L17.2645 25.4625L17.022 25.47C16.4057 25.4875 15.692 25.4962 14.2857 25.4987L13.3532 25.5H11.717C10.8048 25.5032 9.89262 25.4936 8.98071 25.4712L8.73821 25.4637C8.44147 25.4525 8.1448 25.4396 7.84821 25.425C6.51821 25.3625 5.61071 25.1525 4.81321 24.8437C3.97925 24.5301 3.22376 24.0382 2.59946 23.4025C1.96314 22.778 1.47085 22.022 1.15696 21.1875C0.848211 20.3912 0.638211 19.4837 0.575711 18.1525L0.538211 17.2625L0.531961 17.02C0.508919 16.1085 0.498501 15.1968 0.500711 14.285V11.715C0.497251 10.8032 0.506419 9.8915 0.528211 8.98L0.536961 8.7375C0.546961 8.45625 0.559461 8.18 0.574461 7.8475C0.636961 6.51625 0.846961 5.61 1.15571 4.8125C1.47033 3.97775 1.96349 3.2218 2.60071 2.5975C3.22465 1.96194 3.9797 1.47009 4.81321 1.15625C5.61071 0.8475 6.51696 0.6375 7.84821 0.575C8.18071 0.56 8.45821 0.5475 8.73821 0.5375L8.98071 0.53C9.8922 0.507791 10.804 0.498207 11.7157 0.50125L14.2857 0.5ZM13.0007 6.75C11.3431 6.75 9.7534 7.40848 8.58129 8.58058C7.40919 9.75268 6.75071 11.3424 6.75071 13C6.75071 14.6576 7.40919 16.2473 8.58129 17.4194C9.7534 18.5915 11.3431 19.25 13.0007 19.25C14.6583 19.25 16.248 18.5915 17.4201 17.4194C18.5922 16.2473 19.2507 14.6576 19.2507 13C19.2507 11.3424 18.5922 9.75268 17.4201 8.58058C16.248 7.40848 14.6583 6.75 13.0007 6.75ZM13.0007 9.25C13.4932 9.24992 13.9808 9.34683 14.4358 9.53521C14.8908 9.72359 15.3043 9.99975 15.6525 10.3479C16.0008 10.6961 16.2771 11.1094 16.4656 11.5644C16.6542 12.0193 16.7513 12.5069 16.7513 12.9994C16.7514 13.4918 16.6545 13.9795 16.4661 14.4345C16.2777 14.8895 16.0016 15.3029 15.6534 15.6512C15.3053 15.9995 14.8919 16.2758 14.437 16.4643C13.982 16.6528 13.4944 16.7499 13.002 16.75C12.0074 16.75 11.0536 16.3549 10.3503 15.6516C9.64705 14.9484 9.25196 13.9946 9.25196 13C9.25196 12.0054 9.64705 11.0516 10.3503 10.3483C11.0536 9.64509 12.0074 9.25 13.002 9.25M19.5645 4.875C19.1501 4.875 18.7526 5.03962 18.4596 5.33265C18.1666 5.62567 18.002 6.0231 18.002 6.4375C18.002 6.8519 18.1666 7.24933 18.4596 7.54235C18.7526 7.83538 19.1501 8 19.5645 8C19.9789 8 20.3763 7.83538 20.6693 7.54235C20.9623 7.24933 21.127 6.8519 21.127 6.4375C21.127 6.0231 20.9623 5.62567 20.6693 5.33265C20.3763 5.03962 19.9789 4.875 19.5645 4.875Z" fill="white"/>
</svg>
