<svg width="178" height="163" viewBox="0 0 178 163" fill="none" xmlns="http://www.w3.org/2000/svg">
<path fill-rule="evenodd" clip-rule="evenodd" d="M114.224 0.0175369C111.368 0.269446 109.189 0.627651 106.927 1.2167C100.926 2.7797 95.4345 5.68757 90.0627 10.1476C88.5118 11.4353 84.7018 15.2687 83.3533 16.8984C80.6356 20.1828 77.8412 24.3235 75.9831 27.8193C74.9085 29.8412 74.6974 30.2642 73.8994 31.9935C70.2966 39.8015 68.0846 47.0299 66.5781 55.9183C65.8323 60.3182 65.4578 63.6148 65.1826 68.2024C65.0402 70.5752 64.9435 75.6206 65.0385 75.716C65.066 75.7438 67.022 75.4927 69.385 75.1581L73.6816 74.5497L73.7536 73.3418C74.2898 64.3438 75.5731 57.6052 78.0781 50.6319C79.049 47.9293 80.8567 43.9597 82.206 41.5679C87.7029 31.8232 95.7382 25.1457 104.468 23.068C107.097 22.4423 110 22.1864 112.46 22.3637C118.41 22.7927 123.346 24.5486 128.769 28.1653C131.494 29.9828 133.655 31.8004 136.13 34.3547C145.497 44.0237 152.025 58.3499 154.518 74.7064C155.616 81.9146 155.724 90.4846 154.809 97.9302C153.509 108.518 150.042 118.495 145.043 126.038C139.374 134.591 131.942 140.059 123.707 141.737C121.594 142.168 120.961 142.222 118.09 142.217C115.011 142.212 113.914 142.089 111.288 141.453C99.3389 138.56 88.0506 127.679 81.1688 112.422C79.3643 108.422 78.3817 105.697 76.7916 100.286C76.7039 99.9869 76.6329 99.9018 76.4842 99.917C75.4042 100.028 68.1535 101.062 68.0935 101.114C67.9225 101.262 69.4201 106.909 70.5771 110.478C74.4562 122.448 79.6348 132.32 86.6678 141.154C91.9279 147.761 98.0571 153.178 104.463 156.882C110.085 160.133 115.827 162.075 122.004 162.814C124.064 163.061 128.397 163.062 130.46 162.817C135.371 162.232 139.539 160.989 143.894 158.808C152.729 154.384 160.311 146.798 166.243 136.446C168.003 133.375 170.213 128.677 171.54 125.185C179.107 105.268 180.075 80.9465 174.187 58.6405C171.112 46.988 166.557 36.5768 160.66 27.7163C150.771 12.8581 137.804 3.28429 124.04 0.679101C121.611 0.219452 119.841 0.0475328 117.171 0.0122947C115.789 -0.00595528 114.463 -0.00362541 114.224 0.0175369ZM104.807 41.7156C100.125 42.1297 95.8569 44.2936 92.0534 48.181C90.1645 50.1114 88.8012 51.9622 87.3521 54.5634C84.6107 59.4838 82.8358 65.2928 82.0798 71.8192C81.9886 72.6071 81.9336 73.2715 81.9577 73.2957C81.9911 73.3293 89.0483 72.3639 93.439 71.7249L93.9643 71.6485L94.3153 70.7748C95.5721 67.6463 97.4481 65.1768 99.682 63.7102C100.737 63.0177 101.444 62.6895 102.596 62.357C103.233 62.1732 103.578 62.1399 104.801 62.1437C106.053 62.1478 106.379 62.1832 107.196 62.4039C110.554 63.3116 113.617 65.9497 115.926 69.9238C117.854 73.2413 119.007 76.959 119.451 81.291C119.6 82.7458 119.512 86.8435 119.303 88.1408C118.708 91.8372 117.704 94.628 116.105 97.0335C114.714 99.126 113.295 100.449 111.469 101.355C109.807 102.18 109.174 102.325 107.265 102.32C105.807 102.316 105.596 102.293 104.801 102.049C103.637 101.692 102.18 100.969 101.172 100.247C100.419 99.7078 98.5309 97.8843 98.0007 97.1836L97.7837 96.8969L96.5084 97.0652C95.8071 97.1577 94.4939 97.3374 93.5902 97.4644C92.6866 97.5915 90.4686 97.9018 88.6614 98.154C86.8542 98.4062 85.3594 98.6265 85.3396 98.6437C85.2834 98.6927 85.9712 100.442 86.6376 101.945C88.9136 107.077 91.8481 111.38 95.5356 114.993C99.3538 118.734 103.923 121.206 108.391 121.946C109.832 122.185 112.529 122.184 113.982 121.945C117.477 121.368 120.675 119.921 123.453 117.66C124.538 116.778 126.419 114.85 127.384 113.633C131.172 108.854 133.764 102.679 135.146 95.1429C136.252 89.1073 136.219 81.7018 135.054 75.1548C133.717 67.6364 131.188 61.045 127.402 55.2121C124.204 50.2854 119.991 46.2938 115.568 44.0006C112.859 42.5959 110.484 41.9246 107.452 41.7062C106.685 41.651 105.992 41.6114 105.912 41.6182C105.833 41.6251 105.335 41.6689 104.807 41.7156ZM34.589 75.4955C34.0951 75.5794 30.2315 76.1237 15.0669 78.2467C6.71073 79.4164 3.62034 79.8617 3.58043 79.9018C3.56148 79.9208 3.69186 80.0634 3.87017 80.2187C4.04847 80.3739 5.84702 81.9364 7.86689 83.6909C13.5581 88.6345 14.692 89.636 14.6953 89.7219C14.6986 89.8079 14.3895 89.8554 8.49507 90.6754C6.34232 90.9749 4.31801 91.3054 3.99667 91.4099C2.09462 92.0286 0.546477 93.758 0.135739 95.723C-0.0586124 96.6529 -0.0448887 97.4465 0.180969 98.3335C0.669312 100.251 1.96202 101.706 3.83711 102.447C4.41543 102.676 4.6181 102.703 5.74071 102.708C6.795 102.712 7.73448 102.606 11.5808 102.053C14.1019 101.691 16.2203 101.407 16.2886 101.422C16.3623 101.439 15.3597 103.063 13.8148 105.43C9.60919 111.874 8.30178 113.892 8.30178 113.939C8.30178 113.963 9.46509 113.819 10.887 113.618C12.3089 113.418 14.2551 113.144 15.2118 113.01C19.4682 112.414 29.7808 110.965 33.5742 110.429C35.8599 110.106 38.2518 109.771 38.8897 109.685C39.5275 109.599 40.1025 109.487 40.1675 109.436C40.2706 109.355 41.7627 107.086 47.1281 98.8525C47.8321 97.7722 48.441 96.8789 48.4811 96.8675C48.5212 96.8562 50.7721 96.5366 53.4829 96.1574C56.1938 95.7783 60.2601 95.2076 62.5192 94.8893C64.7782 94.5709 67.2354 94.2256 67.9795 94.1218C69.8413 93.862 79.0105 92.5732 86.9701 91.4525C90.6112 90.9399 96.2431 90.1491 99.4855 89.6953C102.728 89.2415 105.659 88.8059 105.998 88.7273C107.791 88.3129 109.451 86.7655 110.086 84.9176C110.384 84.0503 110.406 82.2253 110.128 81.4045C109.609 79.8694 108.462 78.5061 107.159 77.8766C106.398 77.5089 105.305 77.2302 104.626 77.2304C104.403 77.2305 100.785 77.7126 96.5862 78.3016C92.387 78.8907 86.929 79.6545 84.4574 79.9993C81.9857 80.3439 79.6807 80.6696 79.3352 80.723C78.9897 80.7763 76.8152 81.084 74.503 81.4066C72.1908 81.7292 67.9723 82.3207 65.1285 82.721C62.2848 83.1213 58.7404 83.6198 57.252 83.8287C55.7637 84.0377 52.8014 84.4553 50.669 84.7567L46.792 85.3049L41.1234 80.3696C38.0056 77.6553 35.3796 75.4278 35.2876 75.4198C35.1957 75.4118 34.8813 75.4458 34.589 75.4955Z" fill="#DCDDDE"/>
</svg>
