<svg width="221" height="145" viewBox="0 0 221 145" fill="none" xmlns="http://www.w3.org/2000/svg">
<path fill-rule="evenodd" clip-rule="evenodd" d="M77.2943 0.931457C53.6529 5.92413 27.4783 23.4596 6.35146 48.4587C0.434305 55.4591 -0.933228 58.8289 0.554363 62.7348C1.0278 63.9771 4.83576 68.9442 9.01668 73.7721C30.0362 98.0429 55.8481 114.477 79.5372 118.671C86.4582 119.896 104.696 119.385 109.933 117.819L113.194 116.844L108.913 112.328C89.4402 91.7825 87.2765 60.4458 103.851 39.0095C110.556 30.3369 124.641 21.8053 137.674 18.5213L143.983 16.9325L137.765 13.3095C121.697 3.94524 110.311 0.471785 94.3245 0.0588448C86.7273 -0.137429 80.9524 0.158257 77.2943 0.931457ZM62.1621 25.7232C56.9372 30.0947 51.0286 38.7741 48.6682 45.5468C43.3479 60.8129 46.2618 76.8419 56.6758 89.5997L60.5314 94.3231L57.2046 92.3348C45.899 85.5766 28.6142 70.9826 21.9086 62.5352L19.2723 59.2138L27.6239 50.6253C37.0306 40.9527 48.073 32.2197 58.1225 26.5049C61.8538 24.3832 65.1066 22.655 65.3527 22.6643C65.5979 22.6728 64.1623 24.0502 62.1621 25.7232ZM93.5386 26.7062C95.5473 28.4973 96.2072 29.8288 96.2753 32.2265C96.4073 36.8666 93.8647 39.7546 87.9876 41.6392C78.3825 44.7201 74.1462 51.6679 75.2234 62.5751C75.9668 70.1049 75.3239 72.4474 71.9493 74.5002C67.8655 76.9855 64.8316 76.6559 61.5388 73.3702C59.2576 71.0939 58.6087 69.6316 58.1089 65.6399C55.7859 47.0864 63.9494 32.1288 79.7705 25.9526C85.7566 23.616 90.3539 23.8675 93.5386 26.7062ZM138.838 28.1796C126.426 30.8713 113.532 40.7156 108.191 51.5812C98.8758 70.5255 101.961 90.5344 116.451 105.163C130.843 119.693 152.708 122.913 170.653 113.145L175.881 110.299L178.135 112.645C180.079 114.672 180.267 115.308 179.505 117.307C179.021 118.579 178.624 120.233 178.624 120.981C178.624 121.73 183.683 127.441 189.866 133.671C200.541 144.428 201.279 145 204.493 145C207.56 145 208.457 144.421 214.046 138.84C220.635 132.26 221.992 129.417 220.387 125.552C219.835 124.22 214.87 118.683 209.355 113.248C200.734 104.752 198.944 103.366 196.584 103.366C195.075 103.366 193.154 103.732 192.316 104.179C191.132 104.811 190.286 104.463 188.508 102.612L186.222 100.231L189.254 94.278C192.407 88.0839 194.773 79.0485 194.773 73.2028C194.773 61.9497 189.243 48.8538 181.021 40.6417C169.834 29.466 154.204 24.848 138.838 28.1796ZM161.743 44.071C168.476 47.157 173.84 52.3824 177.134 59.066C179.698 64.2659 179.901 65.3068 179.901 73.19C179.901 80.8031 179.649 82.2136 177.502 86.5758C172.923 95.8788 164.563 102.196 154.115 104.247C133.519 108.291 113.918 89.1732 117.282 68.3257C119.158 56.7056 126.123 48.1468 137.66 43.2901C144.287 40.4998 154.689 40.8371 161.743 44.071ZM123.446 61.0525C120.916 63.5769 123.269 68.5296 126.998 68.5296C129.512 68.5296 130.94 66.9908 130.94 64.2812C130.94 63.0662 130.48 61.6133 129.918 61.0525C128.6 59.738 124.764 59.738 123.446 61.0525ZM122.982 75.1817C122.207 76.0364 121.573 77.6814 121.573 78.8378C121.573 81.996 125.492 89.2191 129.368 93.204C137.928 102.005 152.109 103.398 149.203 95.1515C148.55 93.2992 147.483 92.5447 144.214 91.6237C138.959 90.1427 132.69 84.1092 130.98 78.8862C129.289 73.7219 125.78 72.0965 122.982 75.1817Z" fill="#DCDDDE"/>
</svg>
