<svg width="1440" height="1157" viewBox="0 0 1440 1157" fill="none" xmlns="http://www.w3.org/2000/svg">
<g opacity="0.16">
<path d="M439.42 664.359C393.106 515.082 476.573 356.524 625.85 310.209C775.127 263.895 933.685 347.363 980 496.64C1026.31 645.917 942.846 804.475 793.57 850.789C644.293 897.103 485.734 813.636 439.42 664.359Z" stroke="#C4C4C4"/>
<path d="M476.016 782.312C429.784 633.3 513.317 474.955 662.594 428.64C811.872 382.325 970.363 465.58 1016.6 614.593C1062.83 763.605 979.295 921.95 830.017 968.265C680.74 1014.58 522.248 931.324 476.016 782.312Z" stroke="#C4C4C4"/>
<path d="M744.397 699.045C698.165 550.033 781.698 391.688 930.975 345.374C1080.25 299.059 1238.74 382.314 1284.98 531.326C1331.21 680.338 1247.68 838.683 1098.4 884.998C949.12 931.313 790.629 848.058 744.397 699.045Z" stroke="#C4C4C4"/>
</g>
<path fill-rule="evenodd" clip-rule="evenodd" d="M720.275 292.826C721.91 292.56 723.452 293.671 723.718 295.306L725.201 304.431C725.467 306.066 724.357 307.608 722.722 307.873L713.607 309.356C711.972 309.622 710.43 308.512 710.164 306.876L708.68 297.751C708.414 296.116 709.524 294.575 711.16 294.309L720.275 292.826Z" fill="#588FFF"/>
<path fill-rule="evenodd" clip-rule="evenodd" d="M306.53 862.268C307.117 860.718 308.849 859.939 310.398 860.526L319.043 863.803C320.592 864.391 321.372 866.123 320.784 867.672L317.507 876.316C316.92 877.866 315.187 878.645 313.638 878.058L304.994 874.781C303.445 874.193 302.665 872.461 303.252 870.912L306.53 862.268Z" fill="#BF4CF4"/>
<path fill-rule="evenodd" clip-rule="evenodd" d="M127.93 492.535C127.25 491.024 127.923 489.248 129.434 488.568L137.864 484.773C139.375 484.093 141.151 484.766 141.831 486.277L145.626 494.707C146.306 496.218 145.633 497.994 144.122 498.674L135.692 502.469C134.182 503.149 132.405 502.476 131.725 500.965L127.93 492.535Z" fill="#825EEE"/>
<path fill-rule="evenodd" clip-rule="evenodd" d="M761.705 634.751C762.988 633.702 764.878 633.893 765.926 635.177L768.161 637.913C769.209 639.196 769.018 641.086 767.735 642.134L764.998 644.369C763.715 645.417 761.825 645.226 760.777 643.943L758.542 641.206C757.494 639.923 757.685 638.033 758.969 636.985L761.705 634.751Z" fill="#282A5B"/>
</svg>
