<svg width="59" height="58" viewBox="0 0 59 58" fill="none" xmlns="http://www.w3.org/2000/svg">
<path fill-rule="evenodd" clip-rule="evenodd" d="M11.8023 36.9113V39.9266H10.1661C8.62289 39.9266 8.49475 39.8678 7.91521 38.89C6.32687 36.2102 2.20135 36.1656 0.581201 38.8107C-0.193734 40.075 -0.193734 42.1905 0.581201 43.4548C2.18863 46.0794 6.60346 45.9615 8.00852 43.2567C8.47899 42.3515 8.51807 42.3389 10.8795 42.3389C14.2062 42.3389 14.2259 42.3111 14.2259 37.6437V33.896H13.0141H11.8023V36.9113ZM19.6789 42.0373V50.1787H17.1726H14.6667L14.125 49.1776C12.5697 46.3031 8.33055 46.3661 6.68071 49.288C5.56163 51.2699 5.98636 53.2335 7.87643 54.8165C8.63834 55.4546 9.13275 55.6063 10.4518 55.6063C11.8408 55.6063 12.2416 55.4688 13.1404 54.683C13.7215 54.1755 14.2807 53.497 14.3834 53.1753C14.5527 52.6443 14.8705 52.5909 17.86 52.5909C20.4472 52.5909 21.2521 52.4896 21.6265 52.1172C22.0376 51.7078 22.1025 50.4344 22.1025 42.7698V33.896H20.8907H19.6789V42.0373ZM28.1614 41.728V49.5603L27.2392 50.0349C24.4503 51.4705 24.4409 56.1192 27.2241 57.5514C28.3859 58.1494 30.3605 58.1494 31.5222 57.5514C34.3054 56.1192 34.296 51.4705 31.5071 50.0349L30.5849 49.5603V41.728V33.896H29.3732H28.1614V41.728ZM36.3409 42.7698C36.3409 50.4344 36.4057 51.7078 36.8168 52.1172C37.1913 52.4896 37.9962 52.5909 40.5834 52.5909C43.5728 52.5909 43.8906 52.6443 44.06 53.1753C44.1627 53.497 44.7219 54.1755 45.3029 54.683C46.2018 55.4688 46.6026 55.6063 47.9916 55.6063C49.3106 55.6063 49.805 55.4546 50.5669 54.8165C52.4282 53.2576 52.8623 51.3586 51.8199 49.3374C50.2982 46.3875 45.8791 46.2932 44.3184 49.1776L43.7767 50.1787H41.2707H38.7645V42.0373V33.896H37.5527H36.3409V42.7698ZM44.2175 37.6437C44.2175 42.341 44.216 42.3389 47.7153 42.3389C50.2455 42.3389 50.2637 42.3443 50.7378 43.2567C51.7236 45.1543 54.6073 45.9473 56.6667 44.8871C59.4862 43.4361 59.4372 38.8043 56.5868 37.3371C54.5379 36.2826 51.9653 36.9767 50.8311 38.89C50.2413 39.885 50.1446 39.9266 48.4287 39.9266H46.6411V36.9113V33.896H45.4293H44.2175V37.6437ZM2.85178 39.7623C1.97445 40.6352 1.90719 41.4328 2.6382 42.2927C3.52008 43.33 4.68036 43.4244 5.57677 42.5322C6.0015 42.1094 6.34929 41.4795 6.34929 41.1327C6.34929 40.3192 5.04601 39.022 4.22867 39.022C3.88028 39.022 3.26076 39.3552 2.85178 39.7623ZM53.1408 39.7623C52.2534 40.6452 52.198 41.4243 52.9556 42.3558C54.0808 43.7386 56.6383 42.8563 56.6383 41.0857C56.6383 40.3111 55.3135 39.022 54.5176 39.022C54.1693 39.022 53.5497 39.3552 53.1408 39.7623ZM9.53021 49.6344C8.70741 50.0988 8.4799 50.4872 8.47445 51.4382C8.4699 52.2481 9.66109 53.4955 10.4391 53.4955C11.217 53.4955 12.4082 52.2481 12.4037 51.4382C12.3979 50.4624 12.1622 50.0765 11.2921 49.6209C10.4848 49.1978 10.3012 49.1993 9.53021 49.6344ZM47.0955 49.6344C46.2727 50.0988 46.0452 50.4872 46.0397 51.4382C46.0352 52.2481 47.2263 53.4955 48.0043 53.4955C48.7823 53.4955 49.9735 52.2481 49.9689 51.4382C49.9632 50.4624 49.7275 50.0765 48.8574 49.6209C48.05 49.1978 47.8665 49.1993 47.0955 49.6344ZM27.9963 52.4266C27.5873 52.8337 27.2525 53.4503 27.2525 53.7971C27.2525 54.6106 28.5558 55.9078 29.3732 55.9078C29.7215 55.9078 30.3411 55.5746 30.75 55.1675C31.159 54.7605 31.4938 54.1438 31.4938 53.7971C31.4938 53.4503 31.159 52.8337 30.75 52.4266C30.3411 52.0195 29.7215 51.6863 29.3732 51.6863C29.0248 51.6863 28.4052 52.0195 27.9963 52.4266Z" fill="white"/>
<path d="M28.8516 3.11434L28.8513 3.11453C28.3794 3.38774 27.4737 4.13307 26.5512 5.02205C25.6082 5.9308 24.9149 6.73329 24.7321 7.05738L24.7319 7.05768C24.7289 7.06295 24.7256 7.06893 24.7219 7.07558C24.6534 7.19817 24.4594 7.54565 24.1128 7.80886C23.659 8.15346 23.1651 8.21518 22.7851 8.19804C22.4516 8.18299 22.0999 8.10223 21.7784 8.01804C21.4364 7.92848 21.0069 7.8009 20.4831 7.64367C17.5837 6.77338 14.9459 7.24818 12.4969 9.09391L12.4969 9.09392C11.9603 9.49832 11.3125 10.237 10.7382 11.1374C10.1656 12.035 9.75457 12.9546 9.59658 13.6521L9.59657 13.6522C9.45411 14.2809 9.28759 14.9526 8.95322 15.4683C8.4943 16.1761 7.85725 16.4318 7.30743 16.551L28.8516 3.11434ZM28.8516 3.11434C29.4622 2.76063 30.727 2.20774 31.5965 1.92507L31.5967 1.92499M28.8516 3.11434L31.5967 1.92499M31.5967 1.92499C32.6923 1.56862 33.6063 1.45579 36.003 1.51502L36.003 1.51502M31.5967 1.92499L36.003 1.51502M36.003 1.51502C37.5022 1.55203 38.1985 1.59251 38.7758 1.7149C39.3233 1.83096 39.8167 2.03205 40.8885 2.53601L41.5248 1.18277M36.003 1.51502L41.5248 1.18277M41.5248 1.18277L40.8885 2.53602C44.7905 4.37082 47.6898 8.2877 48.114 12.0715L48.3305 14.0052L48.4567 15.1317M41.5248 1.18277L48.4567 15.1317M48.4567 15.1317L49.5749 15.3179M48.4567 15.1317L49.5749 15.3179M49.5749 15.3179L50.9378 15.5447M49.5749 15.3179L50.9378 15.5447M57.2532 23.0158V23.0157C57.2551 21.8589 57.1539 21.0703 56.9414 20.4027C56.7321 19.7449 56.3859 19.1147 55.7754 18.3164L57.2532 23.0158ZM57.2532 23.0158C57.2502 25.0121 56.5286 26.6272 54.9374 28.0704L54.9373 28.0706M57.2532 23.0158L54.9373 28.0706M54.9373 28.0706C54.6825 28.3017 54.4895 28.4839 54.3327 28.6317C53.9746 28.9696 53.8061 29.1286 53.5249 29.284C53.1923 29.4679 52.6271 29.6602 51.174 29.7949C48.5894 30.0343 43.8604 30.0502 34.1872 30.0827C32.8426 30.0872 31.4024 30.092 29.8592 30.0978C28.7313 30.1021 27.6556 30.1063 26.6294 30.1104C15.7573 30.1536 10.4497 30.1747 7.55463 29.9028C5.99064 29.7559 5.34031 29.5366 4.94913 29.3143C4.59987 29.1157 4.37998 28.8895 3.89551 28.3911C3.77526 28.2674 3.63871 28.1269 3.47984 27.9659L3.47981 27.9659M54.9373 28.0706L3.47981 27.9659M3.47981 27.9659C2.60117 27.0756 2.14832 26.4358 1.88596 25.7917C1.62311 25.1464 1.49791 24.3655 1.50003 23.1008C1.50318 21.243 2.27489 19.5692 3.84064 18.2073L3.84078 18.2072M3.47981 27.9659L3.84078 18.2072M3.84078 18.2072C4.45457 17.6732 4.88438 17.3749 5.33957 17.1557M3.84078 18.2072L5.33957 17.1557M50.9378 15.5447C50.9378 15.5447 50.9379 15.5447 50.9379 15.5447M50.9378 15.5447L50.9379 15.5447M50.9379 15.5447C52.8005 15.8549 54.7899 17.028 55.7753 18.3163L50.9379 15.5447ZM5.33957 17.1557C5.80525 16.9315 6.37209 16.754 7.30706 16.5511L5.33957 17.1557Z" stroke="url(#paint0_linear_165_415)" stroke-width="3"/>
<defs>
<linearGradient id="paint0_linear_165_415" x1="-1.69463" y1="33.2464" x2="3.3827" y2="-13.6497" gradientUnits="userSpaceOnUse">
<stop stop-color="#C944F7"/>
<stop offset="1" stop-color="#06DCC2"/>
</linearGradient>
</defs>
</svg>
