<svg width="65" height="65" viewBox="0 0 65 65" fill="none" xmlns="http://www.w3.org/2000/svg">
<path fill-rule="evenodd" clip-rule="evenodd" d="M16.7142 20.899L11.7396 16.477C10.9442 15.7703 10.4881 14.7547 10.4881 13.69V13.5678C10.4881 12.6503 10.8454 11.788 11.4944 11.1389C12.0571 10.5762 12.8058 10.2665 13.6012 10.2665C14.3965 10.2665 15.1452 10.5762 15.7079 11.1389L16.7142 12.1452L17.7205 11.1389C18.8458 10.0143 20.8086 10.0143 21.9339 11.1389C22.583 11.788 22.9402 12.6503 22.9402 13.5678V13.69C22.9402 14.7539 22.4842 15.7703 21.6888 16.477L16.7142 20.899ZM24.4967 13.69V13.5678C24.4967 12.2347 23.9776 10.9817 23.0344 10.0384C22.1783 9.18158 21.039 8.70996 19.8272 8.70996C18.6598 8.70996 17.5594 9.14812 16.7142 9.94661C15.869 9.14812 14.7686 8.70996 13.6012 8.70996C12.3894 8.70996 11.2501 9.18158 10.394 10.0384C9.45073 10.9817 8.93164 12.2347 8.93164 13.5678V13.69C8.93164 15.1983 9.57837 16.6381 10.7053 17.6397L16.7142 22.9816L22.7223 17.6405C23.85 16.6388 24.4968 15.1991 24.4968 13.69L24.4967 13.69Z" fill="white"/>
<path fill-rule="evenodd" clip-rule="evenodd" d="M62.6774 34.4726C62.6774 35.0492 62.2084 35.5172 61.6328 35.5172H49.6531L44.5428 41.6481C44.3359 41.8946 43.8742 41.7285 43.8742 41.4068V35.5172H30.2941C29.7185 35.5172 29.2495 35.0492 29.2495 34.4726V29.2495H30.2941C32.0219 29.2495 33.428 27.8434 33.428 26.1156V10.4462H61.6328C62.2084 10.4462 62.6774 10.9142 62.6774 11.4909L62.6774 34.4726ZM37.6065 55.3651C37.6065 55.9417 37.1374 56.4097 36.5618 56.4097H22.9817V62.2993C22.9817 62.6221 22.52 62.7892 22.3132 62.5406L17.2029 56.4097H5.22312C4.64753 56.4097 4.1785 55.9417 4.1785 55.3651V34.4726C4.1785 33.896 4.64754 33.428 5.22312 33.428H15.5283L16.5301 34.6293C17.0002 35.1934 17.6907 35.5172 18.4251 35.5172C19.6556 35.5172 20.67 34.6084 20.8538 33.428H27.1602V34.4726C27.1602 36.2004 28.5663 37.6065 30.2941 37.6065H37.6065L37.6065 55.3651ZM27.1602 31.3387H20.8925V29.2495H27.1602V31.3387ZM3.13387 27.1602C2.55828 27.1602 2.08925 26.6922 2.08925 26.1156V3.13387C2.08925 2.55724 2.55829 2.08925 3.13387 2.08925H30.2941C30.8697 2.08925 31.3387 2.55724 31.3387 3.13387V26.1156C31.3387 26.6922 30.8697 27.1602 30.2941 27.1602H18.8032V33.0498C18.8032 33.3726 18.3415 33.5397 18.1347 33.2911L13.0244 27.1602H3.13387ZM61.6328 8.35699H33.428V3.13387C33.428 1.40606 32.0219 0 30.2941 0H3.13387C1.40606 0 0 1.40606 0 3.13387V26.1156C0 27.8434 1.40606 29.2495 3.13387 29.2495H12.0466L13.788 31.3387H5.22312C3.49531 31.3387 2.08925 32.7448 2.08925 34.4726V55.3651C2.08925 57.0929 3.49531 58.4989 5.22312 58.4989H16.2251L20.7086 63.8787C21.1787 64.4428 21.8692 64.7667 22.6036 64.7667C23.9637 64.7667 25.071 63.6594 25.071 62.2993V58.4989H36.5618C38.2896 58.4989 39.6957 57.0929 39.6957 55.3651V37.6065H41.785V41.4068C41.785 42.7669 42.8923 43.8742 44.2524 43.8742C44.9867 43.8742 45.6772 43.5504 46.1473 42.9863L50.6308 37.6065H61.6328C63.3606 37.6065 64.7667 36.2004 64.7667 34.4726V11.4909C64.7667 9.76305 63.3606 8.35699 61.6328 8.35699Z" fill="url(#paint0_linear_165_454)"/>
<path fill-rule="evenodd" clip-rule="evenodd" d="M28.4876 44.4603C28.4876 45.298 27.8064 45.9793 26.9687 45.9793C26.1309 45.9793 25.4497 45.298 25.4497 44.4603C25.4497 43.6226 26.1309 42.9413 26.9687 42.9413C27.8064 42.9413 28.4876 43.6226 28.4876 44.4603ZM19.3737 42.9413C19.3737 42.1036 20.055 41.4223 20.8927 41.4223C21.7304 41.4223 22.4117 42.1036 22.4117 42.9413C22.4117 43.779 21.7304 44.4603 20.8927 44.4603C20.055 44.4603 19.3737 43.779 19.3737 42.9413ZM13.2978 44.4603C13.2978 43.6226 13.979 42.9413 14.8167 42.9413C15.6545 42.9413 16.3357 43.6226 16.3357 44.4603C16.3357 45.298 15.6545 45.9793 14.8167 45.9793C13.979 45.9793 13.2978 45.298 13.2978 44.4603ZM23.9307 44.4603C23.9307 44.9107 24.0355 45.3345 24.2117 45.7188C23.8844 45.4287 23.5198 45.1811 23.1256 44.9844C23.6208 44.4436 23.9307 43.7304 23.9307 42.9413C23.9307 41.2659 22.5682 39.9033 20.8927 39.9033C19.2173 39.9033 17.8547 41.2659 17.8547 42.9413C17.8547 43.7304 18.1646 44.4436 18.6598 44.9843C18.2656 45.1811 17.901 45.4286 17.5737 45.7188C17.7499 45.3345 17.8547 44.9107 17.8547 44.4603C17.8547 42.7848 16.4922 41.4223 14.8167 41.4223C13.1413 41.4223 11.7788 42.7848 11.7788 44.4603C11.7788 45.2699 12.1015 46.0013 12.6195 46.5466C11.2144 47.3236 10.2598 48.8198 10.2598 50.5363V52.0552H11.7788V50.5363C11.7788 48.8608 13.1413 47.4983 14.8167 47.4983C15.2952 47.4983 15.754 47.6122 16.1717 47.8211C16.0517 48.1681 15.9636 48.5312 15.921 48.9102L15.5808 51.9709L17.0899 52.1388L17.4302 49.078C17.6269 47.3114 19.1155 45.9793 20.8927 45.9793C22.6699 45.9793 24.1585 47.3114 24.3552 49.078L24.6955 52.1388L26.2046 51.9709L25.8644 48.9102C25.8226 48.5312 25.7337 48.1681 25.6137 47.8211C26.0314 47.6122 26.4902 47.4983 26.9687 47.4983C28.6441 47.4983 30.0066 48.8608 30.0066 50.5362V52.0552H31.5256V50.5362C31.5256 48.8198 30.571 47.3236 29.1659 46.5466C29.6839 46.0013 30.0066 45.2699 30.0066 44.4603C30.0066 42.7848 28.6441 41.4223 26.9687 41.4223C25.2932 41.4223 23.9307 42.7848 23.9307 44.4603V44.4603Z" fill="white"/>
<path fill-rule="evenodd" clip-rule="evenodd" d="M53.4298 27.263C53.4298 28.0501 52.7898 28.6902 52.0027 28.6902H48.8665C47.45 28.6902 46.0764 28.3041 44.8669 27.5784V21.8498L45.5062 21.2104C46.4432 20.2735 47.1089 19.0982 47.4301 17.8131C47.5093 17.4955 47.794 17.2729 48.1222 17.2729C48.524 17.2729 48.9036 17.4484 49.1633 17.756C49.4231 18.0628 49.5344 18.466 49.468 18.8627L49.0199 21.5544H52.0027C52.7898 21.5544 53.4298 22.1944 53.4298 22.9815V27.263ZM40.5854 28.6902V21.5544H43.4397L43.4404 28.6902H40.5854ZM52.0027 20.1272H50.704L50.8759 19.0968C51.0108 18.2854 50.7839 17.4605 50.2523 16.8333C49.7206 16.2054 48.9443 15.8457 48.1222 15.8457C47.1382 15.8457 46.284 16.5129 46.045 17.467C45.7867 18.5017 45.2515 19.4464 44.4972 20.2014L44.2867 20.4119C44.0491 20.2357 43.7579 20.1272 43.4397 20.1272H40.5854C39.7983 20.1272 39.1582 20.7673 39.1582 21.5544V28.6902C39.1582 29.4772 39.7983 30.1173 40.5854 30.1173H43.4397C44.0627 30.1173 44.5871 29.7142 44.7819 29.1568C46.0478 29.7848 47.4386 30.1173 48.8665 30.1173H52.0027C53.5768 30.1173 54.857 28.8372 54.857 27.263V22.9815C54.857 21.4074 53.5768 20.1272 52.0027 20.1272L52.0027 20.1272Z" fill="white"/>
<defs>
<linearGradient id="paint0_linear_165_454" x1="-1.86807" y1="68.0628" x2="16.9032" y2="-25.295" gradientUnits="userSpaceOnUse">
<stop stop-color="#C944F7"/>
<stop offset="1" stop-color="#06DCC2"/>
</linearGradient>
</defs>
</svg>
