<svg width="59" height="55" viewBox="0 0 59 55" fill="none" xmlns="http://www.w3.org/2000/svg">
<path fill-rule="evenodd" clip-rule="evenodd" d="M29.0219 0.060771C28.9105 0.109575 26.0456 2.95864 14.5448 14.4576C6.65872 22.3423 0.166193 28.8559 0.116926 28.9323C0.0105883 29.0971 -0.0278504 29.3278 0.0208607 29.5087C0.0569853 29.6428 0.270741 29.8928 0.43995 29.9987C0.574947 30.0833 0.861692 30.0765 1.04151 29.9845C1.19971 29.9036 2.04501 29.0632 18.4141 12.7129C24.3974 6.73639 29.305 1.84655 29.3198 1.84655C29.3617 1.84655 33.3591 5.86391 39.4188 11.996C42.462 15.0755 46.3063 18.9559 47.9616 20.6192C49.6169 22.2823 52.4071 25.0966 54.162 26.873C56.1147 28.8497 57.3954 30.1232 57.4628 30.1555C57.8231 30.3277 58.338 30.2264 58.533 29.945C58.6144 29.8276 58.6206 29.7977 58.619 29.5335C58.6176 29.2884 58.6069 29.2314 58.5425 29.1245C58.5013 29.0563 55.2921 25.8166 51.4108 21.9253L44.354 14.8501V9.8435C44.354 4.25428 44.3736 4.7251 44.1307 4.47698C43.7937 4.13276 43.2244 4.18101 42.9822 4.57428L42.8887 4.72612L42.8807 9.0243C42.8762 11.3883 42.8609 13.3225 42.8466 13.3225C42.8323 13.3225 41.0178 11.5074 38.8142 9.28896C30.1387 0.554794 29.7067 0.123396 29.5724 0.0584889C29.4093 -0.0203004 29.2049 -0.0194374 29.0219 0.060771ZM49.3426 27.9597C49.162 28.0288 49.0512 28.1209 48.9584 28.2787L48.8735 28.4233L48.858 40.979L48.8426 53.5347H29.2995H9.75646L9.74103 41.393L9.72561 29.2514L9.63306 29.1028C9.31581 28.5936 8.53291 28.6686 8.32347 29.2284L8.26026 29.3973V41.8692C8.26026 53.0196 8.26529 54.3579 8.30787 54.5013C8.36697 54.7003 8.50962 54.8667 8.68595 54.9422C8.81716 54.9985 9.35677 55 29.3031 55C47.7508 55 49.7969 54.9952 49.9002 54.9521C50.0457 54.8913 50.1718 54.7719 50.2568 54.6144L50.3234 54.491L50.3327 41.5805C50.3397 31.9984 50.333 28.6263 50.3069 28.5004C50.2324 28.1413 50.0131 27.9441 49.6678 27.9259C49.5349 27.9188 49.4173 27.931 49.3426 27.9597Z" fill="url(#paint0_linear_165_447)"/>
<path fill-rule="evenodd" clip-rule="evenodd" d="M23.852 20.5261C23.6495 20.5821 23.5278 20.6706 23.4112 20.8467L23.3204 20.9836V23.1168V25.2498L23.0813 25.3055C22.1362 25.5253 21.2792 26.2033 20.8374 27.0806C20.7121 27.3294 20.544 27.8258 20.544 27.9469C20.544 28.1392 20.6517 28.1301 18.3657 28.1301C16.3782 28.1301 16.2792 28.1328 16.1699 28.189C15.7795 28.3898 15.6398 28.8997 15.8797 29.2477C15.9356 29.3286 16.045 29.4315 16.1258 29.4791L16.2714 29.5646L18.3768 29.5732L20.4823 29.5817V30.2433V30.9049L18.4077 30.9134C16.3509 30.9219 16.3318 30.9226 16.1942 30.9889C15.7312 31.2121 15.6153 31.7909 15.9584 32.1667C15.9948 32.2066 16.0901 32.2725 16.1701 32.3133L16.3156 32.3873H18.3989H20.4823V33.0197V33.6521L18.4539 33.6523C17.0682 33.6524 16.3867 33.6633 16.3028 33.6866C15.9817 33.7757 15.7623 34.0648 15.7623 34.3987C15.7623 34.6512 15.809 34.7503 16.0194 34.9443C16.2105 35.1205 16.1561 35.1164 18.4077 35.126L20.4823 35.135V35.7663V36.3977H18.4112C16.9126 36.3977 16.3067 36.4078 16.2191 36.4341C16.0388 36.488 15.8032 36.757 15.7758 36.94C15.7244 37.2825 15.8482 37.5736 16.1155 37.7389L16.2664 37.8322L18.3744 37.8413L20.4823 37.8505V38.5277V39.205L18.4231 39.2073C17.2905 39.2086 16.3322 39.2155 16.2935 39.2227C16.1279 39.2535 15.9359 39.4174 15.8364 39.6128C15.6414 39.9959 15.8487 40.4985 16.2515 40.6191C16.3371 40.6448 16.9588 40.655 18.4388 40.655C20.7035 40.655 20.544 40.6416 20.544 40.8311C20.544 41.0333 20.8157 41.6898 21.053 42.0607C21.1636 42.2335 21.7272 42.8213 21.8859 42.9293C22.2761 43.1947 22.6873 43.3751 23.1893 43.5014L23.3204 43.5343V45.6514V47.7684L23.4207 47.934C23.667 48.3407 24.2586 48.3925 24.5783 48.0354C24.771 47.8201 24.7704 47.8278 24.7704 45.5852V43.5548H25.4336H26.0969V45.5618C26.0969 46.882 26.1081 47.613 26.1298 47.6981C26.1752 47.8766 26.305 48.0561 26.4683 48.1664C26.5934 48.2509 26.6287 48.2593 26.8576 48.2593C27.088 48.2593 27.1206 48.2514 27.2424 48.1659C27.3155 48.1145 27.4174 48.0127 27.4688 47.9396L27.5622 47.8067L27.5705 45.6801L27.5789 43.5535L28.203 43.5619L28.827 43.5702L28.8425 45.668C28.859 47.9151 28.8501 47.7958 29.0179 48.0207C29.1909 48.2523 29.5968 48.3441 29.8801 48.2155C30.029 48.1478 30.1999 47.9716 30.2515 47.8326C30.2778 47.7616 30.2883 47.1634 30.29 45.6448L30.2924 43.5548H30.9398H31.5872L31.5965 45.6603C31.6016 46.8183 31.6129 47.7866 31.6216 47.812C31.784 48.2859 32.4311 48.4301 32.8173 48.0784C32.8571 48.0422 32.9196 47.957 32.9561 47.8891C33.0218 47.7671 33.0227 47.7419 33.038 45.668L33.0534 43.5702H33.7167H34.3799L34.3954 45.6704L34.4108 47.7706L34.5033 47.9203C34.6914 48.2245 35.1062 48.3589 35.4236 48.2185C35.5811 48.1488 35.7488 47.9781 35.8044 47.8309C35.8307 47.7611 35.8412 47.1614 35.8429 45.6319L35.8453 43.5288L35.9455 43.5082C36.5295 43.3877 37.2048 43.0246 37.6596 42.5866C38.0806 42.1813 38.4808 41.4852 38.5752 40.9943C38.5866 40.9349 38.6092 40.8343 38.6254 40.7706L38.6549 40.655H40.4546C42.437 40.655 42.4246 40.656 42.6223 40.4645C42.966 40.1314 42.9167 39.5581 42.5233 39.313L42.3748 39.2205L40.5291 39.212L38.6834 39.2036V38.527V37.8504L40.5112 37.8413C42.3148 37.8324 42.3407 37.8313 42.4625 37.7658C42.7024 37.6367 42.8569 37.3816 42.8569 37.1144C42.8569 36.891 42.7244 36.6335 42.5443 36.5069L42.4109 36.4132L40.5472 36.4045L38.6834 36.3959V35.7644V35.1329H40.4077C42.0466 35.1329 42.142 35.1299 42.3324 35.071C42.6519 34.9723 42.8543 34.7019 42.8536 34.3745C42.8528 34.03 42.5872 33.7124 42.2619 33.6671C42.2195 33.6612 41.397 33.6554 40.4341 33.6543L38.6834 33.6521V33.0197V32.3873H40.4963C42.279 32.3873 42.3112 32.3862 42.4321 32.3225C42.926 32.0619 43.0053 31.4601 42.5922 31.1065C42.3596 30.9073 42.3512 30.9066 40.4208 30.9066H38.6834V30.2433V29.58H40.4362C42.3828 29.58 42.4087 29.5777 42.6152 29.3829C42.9852 29.034 42.9192 28.4504 42.4828 28.2129L42.3289 28.1291H40.4912L38.6535 28.1291L38.6376 28.0602C38.6288 28.0223 38.6011 27.9011 38.576 27.7908C38.4386 27.1877 38.1239 26.6492 37.6278 26.1682C37.1804 25.7344 36.6698 25.4495 36.0844 25.307L35.8453 25.2487L35.845 23.1495L35.8447 21.0502L35.7701 20.8901C35.6022 20.5294 35.1444 20.3899 34.7701 20.5855C34.621 20.6635 34.4241 20.9141 34.4104 21.0436C34.4065 21.0811 34.4015 22.0316 34.3993 23.1557L34.3954 25.1994H33.7181H33.0408L33.0317 23.0776L33.0226 20.9559L32.9241 20.822C32.6318 20.4247 32.1159 20.3837 31.7824 20.7314C31.5808 20.9416 31.5881 20.8517 31.5881 23.1315V25.1994H30.9402H30.2924V23.1052V21.0109L30.2061 20.8457C29.9988 20.449 29.4143 20.3815 29.0715 20.7147C28.9959 20.7882 28.9169 20.8868 28.8959 20.9338C28.8673 20.9982 28.8557 21.5358 28.849 23.1094L28.84 25.1994H28.2089H27.5776L27.577 23.1248C27.5763 21.1044 27.5746 21.0465 27.5134 20.9114C27.4197 20.7041 27.3118 20.609 27.0949 20.542C26.8844 20.477 26.7509 20.4847 26.5409 20.5739C26.3791 20.6427 26.2779 20.7446 26.1857 20.9319L26.1123 21.081L26.1035 23.1402L26.0948 25.1994H25.4326H24.7704V23.1177C24.7704 20.8647 24.7721 20.8905 24.6037 20.6989C24.4551 20.53 24.1182 20.4525 23.852 20.5261ZM23.413 26.7225C22.8106 26.8543 22.2647 27.3502 22.0332 27.9759L21.9476 28.2072L21.9396 34.2995C21.9317 40.2095 21.9332 40.3987 21.9904 40.6248C22.0924 41.0283 22.2153 41.2463 22.5029 41.5347C22.7563 41.7886 23.0379 41.9478 23.3994 42.0415C23.6464 42.1055 23.6567 42.1056 29.6612 42.0971L35.6756 42.0886L35.8607 42.0224C36.1807 41.9082 36.409 41.7689 36.626 41.5555C36.8764 41.3094 37.0157 41.0913 37.1223 40.7784L37.2012 40.547L37.1942 34.3308L37.1872 28.1147L37.0994 27.9158C36.9259 27.5225 36.7036 27.23 36.4381 27.0454C36.2112 26.8876 35.8907 26.7456 35.6866 26.7125C35.3868 26.6638 23.6372 26.6734 23.413 26.7225ZM25.2146 27.8531C24.6264 27.9712 24.2062 28.1954 23.799 28.6086C23.5612 28.85 23.4935 28.9428 23.3579 29.2137C23.2406 29.4478 23.1809 29.6154 23.1356 29.8379C23.0753 30.1338 23.0736 30.2576 23.0736 34.3912C23.0736 38.4192 23.0766 38.6547 23.1312 38.915C23.2802 39.6262 23.6945 40.2101 24.3181 40.5876C24.5591 40.7335 24.9331 40.8673 25.2022 40.9039C25.3531 40.9245 26.9358 40.9322 29.7525 40.9261L34.0714 40.9168L34.3419 40.8185C35.2375 40.493 35.7839 39.873 36.0335 38.8993C36.0897 38.6802 36.0921 38.4942 36.0921 34.3922V30.1136L36.0116 29.7945C35.775 28.8564 35.176 28.2246 34.2359 27.9218L33.9789 27.839L29.66 27.8334C27.2846 27.8303 25.2841 27.8392 25.2146 27.8531ZM25.4545 29.212C25.0301 29.2955 24.6643 29.6098 24.5053 30.0273C24.4488 30.1757 24.4462 30.3367 24.4375 34.2537C24.4311 37.1125 24.4385 38.3856 24.4624 38.5263C24.5559 39.0793 24.9268 39.4613 25.4488 39.5422C25.7542 39.5896 33.437 39.5879 33.7141 39.5404C33.9849 39.494 34.1287 39.4183 34.3425 39.2096C34.5459 39.0111 34.658 38.7954 34.7035 38.5151C34.7465 38.2501 34.7452 30.5272 34.702 30.2587C34.6136 29.708 34.2263 29.3145 33.6724 29.2126C33.4507 29.1719 25.6616 29.1712 25.4545 29.212Z" fill="white"/>
<defs>
<linearGradient id="paint0_linear_165_447" x1="-1.69076" y1="57.7991" x2="13.3355" y2="-21.851" gradientUnits="userSpaceOnUse">
<stop stop-color="#C944F7"/>
<stop offset="1" stop-color="#06DCC2"/>
</linearGradient>
</defs>
</svg>
