<svg width="83" height="64" viewBox="0 0 83 64" fill="none" xmlns="http://www.w3.org/2000/svg">
<path fill-rule="evenodd" clip-rule="evenodd" d="M29.3554 20.2312C27.779 20.6582 26.3872 21.271 25.3108 22.0115C23.5475 23.2248 21.3672 25.9518 21.3672 26.9444C21.3672 27.9595 21.6394 28.0218 26.0898 28.024L30.1501 28.0262L31.2842 30.016L32.4186 32.006L31.2842 33.996L30.1501 35.9858L26.0583 35.988C22.3259 35.9898 21.9403 36.0191 21.6669 36.3212C21.1997 36.8375 21.3082 37.4728 22.0617 38.633C23.7071 41.1661 26.7678 43.2727 29.6973 43.8879C33.6297 44.7138 38.1365 43.3348 40.9097 40.4573L41.7092 39.6275L52.7954 39.616L63.8813 39.6044L64.8045 40.3342C67.0176 42.0835 69.2771 42.9107 71.8913 42.929C79.9638 42.9855 85.2831 34.6653 81.8563 27.3424C80.9199 25.3412 79.5936 23.8665 77.6536 22.6699C75.9533 21.6209 74.7752 21.2882 72.4031 21.187C70.5715 21.1089 70.1121 21.1507 68.9645 21.4993C67.3041 22.0037 66.687 22.3202 65.1004 23.4817L63.8328 24.4098L52.7894 24.3923L41.746 24.3747L40.7304 23.4062C38.3688 21.1535 35.8071 20.0624 32.5948 19.9407C31.091 19.8838 30.4135 19.9445 29.3554 20.2312ZM29.8752 22.4149C28.9252 22.6406 27.6036 23.2411 26.7459 23.8369C25.7454 24.5317 24.8079 25.3852 24.8079 25.6009C24.8079 25.7019 26.1769 25.7943 28.1128 25.8238C29.9304 25.8517 31.4729 25.9297 31.5403 25.9974C31.9791 26.4377 34.8137 31.6386 34.8153 32.006C34.8164 32.255 34.1014 33.6965 33.2266 35.2095C32.0571 37.2317 31.5073 38.0133 31.1508 38.1611C30.8431 38.2886 29.5941 38.3422 27.7365 38.3078C25.6083 38.2685 24.8075 38.3108 24.8077 38.4631C24.8081 38.7585 26.3417 40.0015 27.5242 40.665C28.8942 41.4336 30.3875 41.7849 32.284 41.7849C35.1054 41.7849 37.4563 40.7364 39.5379 38.5497L40.5957 37.4387H52.8214H65.0472L65.9765 38.2743C69.3781 41.3325 73.9539 41.4997 77.4774 38.694C81.5354 35.4632 81.599 28.6864 77.6022 25.4112C74.1602 22.5908 69.3823 22.7052 66.0356 25.6881L65.0423 26.5733H52.8339H40.6256L39.189 25.1699C37.6647 23.6806 36.4578 22.9702 34.6536 22.5002C33.5375 22.2096 30.9353 22.163 29.8752 22.4149ZM70.5777 25.6834C68.6949 26.1271 67.0229 27.4769 66.1469 29.2607C65.7038 30.1631 65.6437 30.4914 65.6437 32.006C65.6437 33.4819 65.7105 33.868 66.114 34.7224C66.7536 36.0767 67.8832 37.1798 69.3273 37.8603C70.3651 38.3492 70.7351 38.4284 71.9819 38.4284C73.2265 38.4284 73.5965 38.3494 74.6077 37.8686C76.0184 37.1979 77.1645 36.0793 77.8302 34.7236C78.2606 33.8473 78.3191 33.5177 78.3128 32.006C78.3039 29.9398 77.9611 29.0372 76.6543 27.6401C75.0597 25.9353 72.7138 25.18 70.5777 25.6834ZM70.0994 28.3181C67.0386 29.8434 67.0386 34.1686 70.0994 35.6939C72.9286 37.1037 76.0564 35.1619 76.0564 31.9953C76.0564 30.7295 75.7572 29.9716 74.9162 29.1069C73.6262 27.7808 71.7832 27.4789 70.0994 28.3181Z" fill="white"/>
<path fill-rule="evenodd" clip-rule="evenodd" d="M28.815 0.154927C27.9405 0.239315 27.0669 0.392881 26.8737 0.496284C26.6265 0.628479 26.2823 1.44809 25.712 3.26116C25.2663 4.67856 24.8484 6.05901 24.7834 6.32883C24.6329 6.95413 24.442 7.10516 23.3381 7.47404C22.8426 7.63974 21.7775 8.08196 20.9711 8.457L19.505 9.1388L16.6249 7.62761C15.0409 6.7964 13.6103 6.11478 13.4459 6.11315C12.3586 6.10156 6.06554 12.3589 6.04128 13.4755C6.03747 13.6574 6.70805 15.1179 7.53183 16.721L9.02926 19.6359L8.37227 21.0672C8.01099 21.8544 7.57167 22.906 7.39619 23.404C7.22072 23.902 6.9882 24.4022 6.87972 24.5153C6.77107 24.6285 5.33847 25.1354 3.69598 25.6417C2.03176 26.1546 0.613284 26.6939 0.492135 26.8596C0.128325 27.357 -0.0189012 29.0397 0.00192415 32.4585C0.0227495 35.8521 0.217421 37.1292 0.757793 37.4164C0.928742 37.5073 2.33165 37.9654 3.87544 38.4345C5.41923 38.9037 6.77143 39.3807 6.88027 39.4948C6.98928 39.6088 7.26454 40.2318 7.49235 40.8792C7.71998 41.5266 8.14645 42.5349 8.44 43.12C8.75962 43.7569 8.93455 44.3384 8.87606 44.5687C8.82209 44.7804 8.16383 46.115 7.41322 47.5342C6.6626 48.9536 6.04852 50.2841 6.04852 50.4907C6.04852 51.6222 12.3036 57.9016 13.4305 57.9016C13.5866 57.9016 15.0288 57.2191 16.6354 56.3848L19.5566 54.868L20.2726 55.2403C20.6663 55.4452 21.7626 55.9187 22.7088 56.293C23.655 56.6672 24.4878 57.0804 24.5595 57.2112C24.6313 57.3419 25.103 58.772 25.6077 60.3889C26.2884 62.5692 26.6207 63.38 26.8942 63.5263C27.6165 63.9129 31.816 64.1324 34.2864 63.9127C35.5561 63.7997 36.7261 63.657 36.8865 63.5955C37.2362 63.4613 37.51 62.7706 38.5248 59.4639L39.2956 56.9516L40.9169 56.37C41.8086 56.05 42.8813 55.6119 43.3006 55.3963C43.72 55.1806 44.1783 55.0042 44.3194 55.0042C44.4603 55.0042 45.8134 55.6561 47.3258 56.4529C48.8385 57.2497 50.2218 57.9016 50.3998 57.9016C51.4688 57.9016 57.853 51.5553 57.835 50.5103C57.8321 50.3426 57.1489 48.9114 56.3164 47.33L54.803 44.4546L55.2632 43.4496C55.6813 42.536 55.6996 42.4021 55.4633 41.9811C55.0783 41.2953 54.3297 41.0847 53.842 41.5253C53.34 41.9786 52.4076 43.8261 52.4076 44.3673C52.4076 44.5984 53.0613 46.0321 53.8601 47.5534L55.3128 50.3194L54.9365 50.8056C54.3699 51.5376 51.8775 54.0538 51.0088 54.771L50.2439 55.4024L47.4399 53.9356C45.8979 53.129 44.4726 52.4689 44.2725 52.4689C44.0725 52.4689 43.3967 52.7484 42.7707 53.0899C42.1448 53.4316 40.7508 54.014 39.6728 54.3842C38.3682 54.8322 37.6339 55.1848 37.4767 55.4383C37.3469 55.6478 36.8505 57.0976 36.3737 58.66L35.5068 61.501L34.3571 61.6241C33.053 61.7638 28.5806 61.6607 28.407 61.487C28.3441 61.4242 27.9065 60.1233 27.4343 58.5959C26.9624 57.0686 26.4851 55.6503 26.3737 55.4439C26.2395 55.1953 25.6642 54.9019 24.6664 54.5734C23.8388 54.3008 22.3968 53.7159 21.4622 53.2735C20.5276 52.8309 19.6379 52.4689 19.4852 52.4689C19.3326 52.4689 17.9501 53.1243 16.413 53.9254L13.6184 55.3821L12.9573 54.8914C12.1518 54.2934 9.24947 51.3753 8.8422 50.754C8.55589 50.3169 8.58722 50.2299 10.0146 47.5011C10.8213 45.9591 11.4812 44.57 11.4812 44.4141C11.4812 44.2583 11.162 43.4958 10.7717 42.7198C10.3816 41.9436 9.79908 40.5398 9.4771 39.6C9.1553 38.6601 8.80218 37.797 8.69262 37.682C8.58288 37.5669 7.15788 37.06 5.52571 36.5557C3.89373 36.0511 2.50839 35.5886 2.44718 35.5276C2.28474 35.3654 2.18985 30.489 2.32766 29.3847L2.44573 28.441L5.4694 27.4892C7.13253 26.9657 8.58795 26.4436 8.70348 26.3288C8.8192 26.2141 9.1687 25.3527 9.48 24.4145C9.79147 23.4761 10.3691 22.0878 10.7637 21.3294C11.1583 20.5708 11.4812 19.8119 11.4812 19.6427C11.4812 19.4736 10.8211 18.0689 10.0146 16.5211C8.59754 13.8024 8.55752 13.6921 8.83622 13.2669C9.22176 12.6784 12.1281 9.76121 12.9522 9.13554L13.6081 8.63737L16.4094 10.0899C17.9501 10.8889 19.3633 11.5426 19.5499 11.5426C19.7364 11.5426 20.5029 11.2259 21.2536 10.8389C22.0042 10.4519 23.3924 9.87566 24.3386 9.55839C25.2848 9.24112 26.1511 8.88546 26.264 8.76811C26.3768 8.65059 26.5955 8.14716 26.75 7.64916C26.9047 7.15116 27.3242 5.79643 27.6826 4.63872L28.3342 2.53355L29.0075 2.42235C29.8771 2.27857 33.3958 2.27785 34.5892 2.42127L35.5135 2.53228L36.3733 5.36235C36.8461 6.91882 37.3673 8.38293 37.5314 8.61582C37.7322 8.90067 38.3333 9.20092 39.3691 9.53412C40.2157 9.80648 41.6039 10.3697 42.454 10.786C43.304 11.2021 44.1477 11.5426 44.3288 11.5426C44.5099 11.5426 45.9146 10.8852 47.4504 10.0819L50.2428 8.62125L50.9177 9.16325C51.5525 9.67302 54.0015 12.1444 54.9155 13.1974L55.33 13.6751L53.8688 16.4306C53.0651 17.9461 52.4076 19.3838 52.4076 19.6252C52.4076 20.271 53.4239 22.1726 53.955 22.5205C54.522 22.892 55.2029 22.6494 55.5149 21.9643C55.6864 21.588 55.6433 21.3611 55.2498 20.5659L54.78 19.6169L56.3102 16.6913C57.1518 15.0824 57.8403 13.6396 57.8403 13.4853C57.8403 12.8044 54.411 9.05261 52.0584 7.15985C50.9858 6.29678 50.6189 6.09649 50.2475 6.17146C49.9913 6.22325 48.5605 6.90886 47.0678 7.69534L44.3538 9.12522L42.9932 8.4963C42.245 8.15023 41.1146 7.69226 40.4815 7.47857L39.3303 7.08977L38.3691 4.03967C37.8403 2.36205 37.2583 0.841982 37.0756 0.661435C36.4697 0.063295 32.3729 -0.187876 28.815 0.154927ZM28.8287 13.2505C20.6913 14.6937 14.5418 20.8548 13.1949 28.9131C12.0373 35.84 14.8787 42.9474 20.5189 47.2327C22.1476 48.4703 24.965 49.8201 27.1455 50.4078C28.742 50.8381 29.2996 50.8973 31.8539 50.9079C34.3299 50.9185 34.9856 50.8589 36.3632 50.4989C40.5109 49.4149 44.1745 47.102 46.6217 44.0222C47.782 42.5622 47.9319 42.0173 47.3371 41.4225C46.6036 40.689 46.2893 40.8714 44.3139 43.1754C42.6803 45.081 39.9431 46.9039 37.3778 47.7946C34.7683 48.7008 31.238 48.9341 28.5413 48.3785C23.429 47.3251 18.8465 43.6683 16.6964 38.9265C14.9174 35.0032 14.7896 29.9663 16.3658 25.8967C17.9436 21.8224 21.7193 18.0421 25.7873 16.4637C28.3635 15.4641 31.8977 15.0838 34.5834 15.517C38.2576 16.1097 42.0099 18.1524 44.2764 20.7936C45.7905 22.5578 46.1989 22.9513 46.5165 22.9513C46.9267 22.9513 47.6992 22.1358 47.6992 21.7027C47.6992 21.1831 45.7377 18.8226 44.2761 17.583C42.025 15.674 39.3369 14.2982 36.3244 13.5134C34.5048 13.0395 30.7595 12.908 28.8287 13.2505Z" fill="url(#paint0_linear_165_440)"/>
<defs>
<linearGradient id="paint0_linear_165_440" x1="-1.66829" y1="67.2571" x2="18.6788" y2="-24.1984" gradientUnits="userSpaceOnUse">
<stop stop-color="#C944F7"/>
<stop offset="1" stop-color="#06DCC2"/>
</linearGradient>
</defs>
</svg>
