<svg width="41" height="60" viewBox="0 0 41 60" fill="none" xmlns="http://www.w3.org/2000/svg">
<path fill-rule="evenodd" clip-rule="evenodd" d="M26.4241 22.1073C27.3748 22.3812 28.3738 21.8495 28.6639 20.899C28.97 19.8518 29.1312 18.7563 29.1312 17.6447C29.1312 11.3293 23.9909 6.17395 17.6582 6.17395C11.3417 6.17395 6.18532 11.3132 6.18532 17.6447C6.18532 19.0463 6.42703 20.4157 6.92655 21.7045C7.20049 22.4295 7.87726 22.8645 8.60236 22.8645C8.81183 22.8645 9.02133 22.8322 9.23079 22.7517C10.1654 22.3972 10.6327 21.3662 10.2782 20.4318C9.9398 19.5457 9.76254 18.6113 9.76254 17.6446C9.76254 13.3109 13.2914 9.76659 17.6421 9.76659C21.9767 9.76659 25.5217 13.2948 25.5217 17.6446C25.5217 18.4018 25.4089 19.159 25.1994 19.884C24.9255 20.8345 25.4734 21.8334 26.4241 22.1073L26.4241 22.1073Z" fill="#333333"/>
<path fill-rule="evenodd" clip-rule="evenodd" d="M40.0412 36.0238C40.0412 35.9462 40.0282 35.8685 40.0023 35.7908C39.4198 33.2662 37.7369 31.6867 35.6138 31.6867C34.9924 31.6867 34.3969 31.8161 33.8531 32.0492C33.2706 30.2884 31.6136 29.0067 29.6588 29.0067C28.9338 29.0067 28.2477 29.1879 27.6522 29.4987C26.9272 28.0486 25.4255 27.0647 23.7038 27.0647C23.16 27.0647 22.6422 27.1682 22.1632 27.3366V21.9507C22.1632 19.5167 20.1826 17.5229 17.7358 17.5229C15.302 17.5229 13.3084 19.5038 13.3084 21.9507V40.4128L11.7032 37.6292C11.1077 36.5547 10.1626 35.8167 9.0234 35.5319C7.92301 35.26 6.74496 35.4542 5.77405 36.0627C4.1429 37.0984 3.62506 39.4159 4.44064 41.9405C4.44064 41.9535 4.45359 41.9664 4.45359 41.9794C4.62189 42.4843 8.77744 54.2529 13.7227 59.1856C14.0075 59.4704 14.37 59.6128 14.7454 59.6128C15.1208 59.6128 15.4833 59.4704 15.7681 59.1856C16.3377 58.6159 16.3248 57.7097 15.7681 57.14C11.3666 52.7511 7.36636 41.5262 7.18511 41.0342C6.82265 39.8949 6.88738 38.7815 7.32753 38.4967C7.62528 38.3154 7.97482 38.2507 8.31141 38.3284C8.67389 38.419 8.95869 38.665 9.17876 39.0534L13.4897 46.5237C13.8133 47.0933 14.4865 47.3652 15.1079 47.1969C15.7422 47.0286 16.1824 46.4589 16.1824 45.7987V21.9637C16.1824 21.1221 16.8685 20.423 17.7229 20.423C18.5644 20.423 19.2634 21.1092 19.2634 21.9637V38.4967C19.2634 39.2994 19.9107 39.9338 20.7004 39.9338C21.503 39.9338 22.1373 39.2864 22.1373 38.4967V31.363C22.1373 31.3501 22.1503 31.3371 22.1503 31.3242C22.228 30.5474 22.8882 29.9518 23.6779 29.9518C24.5193 29.9518 25.2184 30.638 25.2184 31.4925V33.4474V34.9881V39.0275C25.2184 39.8302 25.8657 40.4646 26.6554 40.4646C27.458 40.4646 28.0924 39.8172 28.0924 39.0275V34.9881V33.4474C28.0924 32.6059 28.7785 31.9068 29.6329 31.9068C30.4743 31.9068 31.1734 32.593 31.1734 33.4474V35.3765C31.1734 35.4671 31.1863 35.5578 31.1993 35.6484C31.1863 35.8037 31.1734 35.9591 31.1734 36.1274V39.0405C31.1734 39.8431 31.8207 40.4775 32.6103 40.4775C33.4 40.4775 34.0473 39.8302 34.0473 39.0405V36.1274C34.0473 35.2859 34.7335 34.5868 35.5879 34.5868C36.5588 34.5868 36.986 35.739 37.1284 36.3346C37.2061 37.7458 37.8663 50.8738 35.4066 56.907C35.1089 57.645 35.4584 58.4865 36.1963 58.7843C36.3775 58.8619 36.5588 58.8879 36.74 58.8879C37.3096 58.8879 37.8534 58.5512 38.0734 57.9945C40.9474 51.0292 40.08 36.6324 40.0412 36.0239V36.0238Z" fill="url(#paint0_linear_165_477)"/>
<path fill-rule="evenodd" clip-rule="evenodd" d="M3.56128 26.671C3.83526 26.671 4.12534 26.6066 4.3832 26.4776C5.26959 26.0264 5.60803 24.9467 5.15678 24.0603C4.12536 22.062 3.60963 19.9187 3.60963 17.6464C3.60963 9.89487 9.91101 3.59374 17.6628 3.59374C25.4147 3.59374 31.7161 9.89487 31.7161 17.6464C31.7161 18.8712 31.5549 20.0798 31.2487 21.2562C30.9908 22.2232 31.571 23.2062 32.5219 23.4479C33.4888 23.7058 34.4719 23.1256 34.7137 22.1748C35.1004 20.7083 35.2938 19.1935 35.2938 17.6464C35.2938 7.91268 27.3808 1.00002e-05 17.6467 1.00002e-05C7.91262 1.00002e-05 -0.000380023 7.91268 -0.000380023 17.6464C-0.000380023 20.4344 0.67649 23.2223 1.93355 25.688C2.27199 26.3165 2.90051 26.671 3.56127 26.671L3.56128 26.671Z" fill="#333333"/>
<defs>
<linearGradient id="paint0_linear_165_477" x1="3.01825" y1="61.7584" x2="17.0326" y2="1.9171" gradientUnits="userSpaceOnUse">
<stop stop-color="#C944F7"/>
<stop offset="1" stop-color="#06DCC2"/>
</linearGradient>
</defs>
</svg>
